<svg width="189px" height="45px" viewBox="0 0 189 45" version="1.1" xmlns="http://www.w3.org/2000/svg">
                    <g id="Symbols" stroke="none" stroke-width="1" fill="none" fill-rule="evenodd">
                        <g id="header/head" transform="translate(-46.000000, -32.000000)">
                            <g id="header/ead">
                                <rect id="Rectangle" x="0" y="0" width="1440" height="100"></rect>
                            </g>
                            <g id="leibniz-fh" transform="translate(46.000000, 32.000000)" fill-rule="nonzero">
                                <g id="claim" transform="translate(54.492095, 9.723300)" fill="#0E1111">
                                    <polyline id="Fill-5" points="78.8057886 25.1838 78.8057886 23.6754 87.9868616 10.3761 79.2769366 10.3761 79.2769366 8.394 90.7160936 8.394 90.7160936 9.9066 81.5335186 23.2032 91.0279886 23.2032 91.0279886 25.1838 78.8057886 25.1838"></polyline>
                                    <path d="M74.8728456,25.4397 C72.6381986,25.4397 72.7283416,24.513 72.7283416,21.8286 L72.7283416,8.394 L74.8599256,8.394 L74.8599256,22.0965 L74.8728456,25.4397" id="Fill-6"></path>
                                    <path d="M66.1172476,25.1838 L66.1172476,12.9945 C66.1172476,10.8123 64.9258566,10.1397 62.9826726,10.1397 C60.9457396,10.1397 59.9114976,10.5111 58.7534596,11.2149 L58.7534596,25.1838 L56.5584756,25.1838 L56.5584756,8.394 L57.7814166,8.394 L58.2528646,9.804 C59.7249016,8.6298 61.3234386,8.0586 62.9826726,8.0586 C66.7109906,8.0586 68.3098286,9.8709 68.3098286,13.0974 L68.3098286,25.1838 L66.1172476,25.1838" id="Fill-8"></path>
                                    <path d="M46.3771146,23.4399 C44.3398808,23.4399 43.2103879,23.0697 41.9889491,22.3647 L41.9889491,11.2149 C43.2103879,10.5111 44.3398808,10.1397 46.3771146,10.1397 C50.1363816,10.1397 50.6057266,13.4652 50.6057266,16.7892 C50.6057266,20.115 50.1363816,23.4399 46.3771146,23.4399 Z M46.3771146,8.0586 C44.9357265,8.0586 43.3350858,8.4963 41.9889491,9.435 L41.9889491,-1.77635684e-15 L39.7954674,-1.77635684e-15 L39.7954674,25.1838 L41.0169062,25.1838 L41.4865517,23.8071 C43.1172401,24.9156 44.6830254,25.5204 46.3771146,25.5204 C51.4215216,25.5204 52.7989076,21.6246 52.7989076,16.7892 C52.7989076,11.9544 51.4215216,8.0586 46.3771146,8.0586 L46.3771146,8.0586 Z" id="Fill-9"></path>
                                    <path d="M34.9247361,25.5171 C32.6690556,25.5171 32.7766264,24.513 32.7766264,21.8286 L32.7766264,8.394 L34.9070079,8.394 L34.9070079,22.0965 L34.9247361,25.5171" id="Fill-10"></path>
                                    <path d="M18.1746486,15.9504 C18.2671955,12.9276 18.9261415,10.1397 22.5619125,10.1397 C26.1649316,10.1397 26.3214801,12.9618 26.3214801,15.9504 L18.1746486,15.9504 Z M28.5152623,16.7892 C28.5152623,11.9544 27.8881669,8.0586 22.5619125,8.0586 C17.2651049,8.0586 15.9808664,11.9544 15.9808664,16.7892 C15.9808664,21.6246 17.2651049,25.5204 22.5619125,25.5204 C24.0958474,25.5204 25.9750302,25.3524 27.7316184,24.513 L27.7316184,22.4994 C26.1967822,23.2032 24.817593,23.4399 22.5619125,23.4399 C19.0195898,23.4399 18.2990461,20.787 18.1746486,17.8656 L28.5152623,17.8656 L28.5152623,16.7892 L28.5152623,16.7892 Z" id="Fill-12"></path>
                                    <polyline id="Fill-13" points="1.50990331e-14 25.1838 1.50990331e-14 8.8817842e-15 2.130682 8.8817842e-15 2.130682 23.0697 13.0049428 23.0697 13.0049428 25.1838 1.50990331e-14 25.1838"></polyline>
                                    <g id="FH" transform="translate(101.441318, 0.000000)">
                                        <polyline id="Fill-14" points="33.042248 25.1766 33.042248 1.77635684e-15 30.922384 1.77635684e-15 30.922384 11.0106 19.264479 11.0106 19.264479 1.77635684e-15 17.144614 1.77635684e-15 17.144614 25.1766 19.264479 25.1766 19.264479 13.1253 30.922384 13.1253 30.922384 25.1766 33.042248 25.1766"></polyline>
                                        <polyline id="Fill-15" points="2.119565 2.1144 13.248329 2.1144 13.248329 1.77635684e-15 0 1.77635684e-15 0 25.1766 2.119565 25.1766 2.119565 13.1253 12.156997 13.1253 12.156997 11.0106 2.119565 11.0106 2.119565 2.1144"></polyline>
                                    </g>
                                    <polygon id="Fill-11" points="32.7691145 5.3016 34.9106137 5.3016 34.9106137 3.0618 32.7691145 3.0618"></polygon>
                                    <polygon id="Fill-7" points="72.7298446 5.3016 74.8722446 5.3016 74.8722446 3.0618 72.7298446 3.0618"></polygon>
                                </g>
                                <g id="logo" transform="translate(0.194709, 0.161100)">
                                    <path d="M-8.8817842e-15,1.3152 L9.61736566,0.8952 L9.61736566,44.6445 L0.004807631,42.1233 C0.004807631,22.9974 0.002403816,7.8447 -8.8817842e-15,1.3152" id="Fill-1" fill="#0288d1"></path>
                                    <path d="M39.5821287,43.3287 L29.926903,43.7508 L29.926903,-3.55271368e-15 L39.5773211,2.9535 C39.5773211,22.3458 39.5797249,37.1457 39.5821287,43.3287" id="Fill-2" fill="#0288d1"></path>
                                    <polyline id="Fill-3" fill="#74BEE6" points="9.61736566 34.4517 9.61736566 44.6445 24.9017265 43.9752 24.9017265 33.7266 9.61736566 34.4517"></polyline>
                                    <polyline id="Fill-4" fill="#74BEE6" points="14.9153752 0.6765 14.9153752 10.9608 29.926903 10.2372 29.926903 2.66453526e-15 14.9153752 0.6765"></polyline>
                                </g>
                            </g>
                        </g>
                    </g>
                </svg>