<svg id="Capa_1" enable-background="new 0 0 512 512" height="512" viewBox="0 0 512 512" width="512" xmlns="http://www.w3.org/2000/svg"><path d="m509.991 248.501-30.276-52.447v-60.554c0-5.359-2.859-10.312-7.501-12.991l-52.447-30.275-30.276-52.446c-2.679-4.642-7.631-7.501-12.991-7.501h-60.554l-52.446-30.278c-4.641-2.678-10.358-2.678-14.999 0l-52.447 30.277h-60.554c-5.359 0-10.312 2.859-12.991 7.501l-30.275 52.446-52.447 30.275c-4.642 2.68-7.501 7.632-7.501 12.991v60.554l-30.277 52.448c-2.679 4.641-2.679 10.357 0 14.998l30.276 52.447v60.554c0 5.359 2.859 10.312 7.501 12.991l52.447 30.275 30.276 52.446c2.679 4.642 7.631 7.501 12.991 7.501h60.554l52.447 30.277c2.32 1.339 4.91 2.009 7.5 2.009s5.179-.67 7.5-2.009l52.447-30.277h60.552c5.359 0 10.312-2.859 12.991-7.501l30.276-52.446 52.447-30.275c4.642-2.68 7.501-7.632 7.501-12.991v-60.554l30.276-52.447c2.679-4.641 2.679-10.358 0-14.998zm-58.267 55.928c-1.316 2.28-2.009 4.866-2.009 7.499v55.911l-48.428 27.956c-2.281 1.317-4.175 3.211-5.492 5.492l-27.956 48.427h-55.912c-2.633 0-5.219.693-7.5 2.009l-48.427 27.957-48.428-27.957c-2.28-1.315-4.867-2.009-7.5-2.009h-55.912l-27.956-48.427c-1.316-2.281-3.21-4.175-5.492-5.492l-48.428-27.956v-55.911c0-2.633-.693-5.219-2.009-7.499l-27.955-48.429 27.957-48.429c1.316-2.28 2.009-4.866 2.009-7.499v-55.911l48.428-27.956c2.281-1.317 4.175-3.211 5.492-5.492l27.956-48.427h55.912c2.633 0 5.219-.693 7.5-2.009l48.426-27.957 48.428 27.957c2.28 1.315 4.867 2.009 7.5 2.009h55.912l27.956 48.427c1.316 2.281 3.21 4.175 5.492 5.492l48.428 27.956v55.911c0 2.633.693 5.219 2.009 7.499l27.955 48.429z"/><path d="m167.633 192.8c-8.284 0-15 6.716-15 15v46.858l-36.786-55.179c-3.667-5.5-10.501-7.95-16.828-6.036-6.327 1.916-10.653 7.746-10.653 14.356v96.4c0 8.284 6.716 15 15 15s15-6.716 15-15v-46.858l36.786 55.179c3.642 5.461 10.454 7.964 16.828 6.036 6.327-1.916 10.653-7.746 10.653-14.356v-96.4c0-8.284-6.715-15-15-15z"/><path d="m264.033 222.8c8.284 0 15-6.716 15-15s-6.716-15-15-15h-48.2c-8.284 0-15 6.716-15 15v96.4c0 8.284 6.716 15 15 15h48.2c8.284 0 15-6.716 15-15s-6.716-15-15-15h-33.2v-18.2h17.133c8.284 0 15-6.716 15-15s-6.716-15-15-15h-17.133v-18.2z"/><path d="m420.305 193.248c-8.037-2.011-16.181 2.877-18.19 10.914l-11.606 46.427-15.844-47.532c-2.042-6.125-7.774-10.257-14.23-10.257s-12.188 4.132-14.23 10.257l-15.844 47.532-11.606-46.427c-2.01-8.038-10.152-12.927-18.19-10.914-8.037 2.009-12.923 10.152-10.914 18.189l24.1 96.4c1.618 6.47 7.313 11.096 13.977 11.352 6.664.239 12.697-3.919 14.806-10.246l17.903-53.71 17.903 53.71c2.048 6.144 7.794 10.258 14.226 10.257.192 0 .387-.004.58-.011 6.664-.256 12.359-4.882 13.977-11.352l24.1-96.4c2.005-8.037-2.882-16.18-10.918-18.189z"/></svg>