<svg xmlns="http://www.w3.org/2000/svg" height="640pt" version="1.1" viewBox="0 0 640 640.00045" width="640pt">
<g id="surface1">
<path d="M 629.328125 373.335938 L 596.613281 373.335938 L 575.996094 73.945312 C 575.609375 68.339844 570.949219 63.996094 565.328125 64.003906 L 501.328125 64.003906 C 495.707031 63.996094 491.046875 68.339844 490.660156 73.945312 L 470.042969 373.335938 L 448 373.335938 L 448 309.335938 C 448 303.449219 443.222656 298.667969 437.335938 298.667969 C 434.90625 298.664062 432.554688 299.492188 430.664062 301.007812 L 341.332031 372.472656 L 341.332031 309.335938 C 341.332031 303.449219 336.558594 298.667969 330.667969 298.667969 C 328.242188 298.664062 325.890625 299.492188 324 301.007812 L 234.667969 372.472656 L 234.667969 309.335938 C 234.667969 303.449219 229.894531 298.667969 224.003906 298.667969 C 221.578125 298.664062 219.222656 299.492188 217.335938 301.007812 L 128.003906 372.472656 L 128.003906 309.335938 C 128 303.449219 123.222656 298.671875 117.335938 298.671875 C 115.394531 298.671875 113.5 299.199219 111.839844 300.195312 L 5.171875 364.195312 C 1.964844 366.125 0 369.589844 0 373.335938 L 0 629.335938 C 0 635.226562 4.777344 640 10.667969 640 L 629.328125 640 C 635.21875 640 639.996094 635.226562 639.996094 629.335938 L 639.996094 384.003906 C 639.996094 378.109375 635.21875 373.335938 629.328125 373.335938 Z M 511.289062 85.335938 L 555.367188 85.335938 L 575.234375 373.335938 L 491.421875 373.335938 Z M 362.660156 618.667969 L 362.660156 490.667969 L 426.660156 490.667969 L 426.660156 618.667969 Z M 618.664062 618.667969 L 448 618.667969 L 448 480 C 448 474.113281 443.21875 469.335938 437.328125 469.335938 L 351.996094 469.335938 C 346.105469 469.335938 341.328125 474.113281 341.328125 480 L 341.328125 618.667969 L 21.332031 618.667969 L 21.332031 379.375 L 106.664062 328.175781 L 106.664062 394.667969 C 106.664062 400.5625 111.4375 405.335938 117.328125 405.34375 C 119.75 405.34375 122.105469 404.515625 124 403 L 213.332031 331.535156 L 213.332031 394.667969 C 213.332031 400.5625 218.101562 405.335938 223.996094 405.34375 C 226.417969 405.34375 228.769531 404.515625 230.664062 403.003906 L 319.996094 331.539062 L 319.996094 394.671875 C 319.996094 400.5625 324.765625 405.34375 330.660156 405.34375 C 333.082031 405.34375 335.433594 404.515625 337.328125 403.003906 L 426.660156 331.539062 L 426.660156 384.003906 C 426.660156 389.898438 431.4375 394.671875 437.328125 394.671875 L 618.65625 394.671875 L 618.65625 618.667969 Z M 618.664062 618.667969 " style=" stroke:none;fill-rule:nonzero;fill:rgb(0%,0%,0%);fill-opacity:1;" />
<path d="M 362.589844 21.339844 C 366.46875 23.417969 369.972656 26.128906 372.960938 29.359375 C 378.941406 36.652344 387.457031 41.402344 396.796875 42.671875 C 406.636719 41.417969 415.621094 36.460938 421.929688 28.804688 C 424.628906 25.972656 427.648438 23.46875 430.933594 21.339844 C 433.128906 21.4375 438.878906 26.820312 441.972656 29.710938 C 447.726562 36.832031 455.992188 41.46875 465.0625 42.671875 C 475.539062 41.34375 485.113281 36.089844 491.859375 27.972656 C 494.472656 25.519531 498.429688 21.796875 499.195312 21.339844 C 504.921875 21.339844 506.234375 23.238281 509.757812 28.316406 C 514.386719 37.0625 523.433594 42.574219 533.332031 42.671875 C 539.21875 42.671875 543.996094 37.894531 543.996094 32.007812 C 543.996094 26.113281 539.21875 21.339844 533.332031 21.339844 C 531.195312 21.339844 530.78125 21.191406 527.316406 16.1875 C 521.652344 6.011719 510.835938 -0.210938 499.195312 0.00390625 C 490.566406 1.203125 482.714844 5.640625 477.246094 12.421875 C 473.703125 15.761719 467.765625 21.339844 465.511719 21.390625 C 462.207031 19.390625 459.191406 16.953125 456.527344 14.152344 C 450.113281 6.339844 440.957031 1.28125 430.929688 0.00390625 C 421.683594 1.265625 413.261719 5.976562 407.34375 13.1875 C 404.351562 16.398438 400.894531 19.144531 397.09375 21.339844 C 393.539062 19.300781 390.304688 16.753906 387.496094 13.765625 C 381.261719 6.195312 372.386719 1.28125 362.660156 0.00390625 C 356.773438 -0.015625 351.976562 4.742188 351.957031 10.636719 C 351.9375 16.523438 356.699219 21.320312 362.589844 21.339844 Z M 362.589844 21.339844 " style=" stroke:none;fill-rule:nonzero;fill:rgb(0%,0%,0%);fill-opacity:1;" />
<path d="M 117.335938 490.667969 L 74.664062 490.667969 C 68.773438 490.667969 64 495.445312 64 501.332031 L 64 565.332031 C 64 571.226562 68.773438 576 74.664062 576 L 117.335938 576 C 123.222656 576 128 571.226562 128 565.332031 L 128 501.332031 C 128 495.445312 123.222656 490.667969 117.335938 490.667969 Z M 106.664062 554.667969 L 85.332031 554.667969 L 85.332031 512.003906 L 106.664062 512.003906 Z M 106.664062 554.667969 " style=" stroke:none;fill-rule:nonzero;fill:rgb(0%,0%,0%);fill-opacity:1;" />
<path d="M 202.667969 490.667969 L 160 490.667969 C 154.105469 490.667969 149.332031 495.445312 149.332031 501.332031 L 149.332031 565.332031 C 149.332031 571.226562 154.105469 576 160 576 L 202.667969 576 C 208.554688 576 213.332031 571.226562 213.332031 565.332031 L 213.332031 501.332031 C 213.332031 495.445312 208.554688 490.667969 202.667969 490.667969 Z M 191.996094 554.667969 L 170.664062 554.667969 L 170.664062 512.003906 L 191.996094 512.003906 Z M 191.996094 554.667969 " style=" stroke:none;fill-rule:nonzero;fill:rgb(0%,0%,0%);fill-opacity:1;" />
<path d="M 288 490.667969 L 245.332031 490.667969 C 239.4375 490.667969 234.664062 495.445312 234.664062 501.332031 L 234.664062 565.332031 C 234.664062 571.226562 239.4375 576 245.332031 576 L 288 576 C 293.886719 576 298.664062 571.226562 298.664062 565.332031 L 298.664062 501.332031 C 298.664062 495.445312 293.886719 490.667969 288 490.667969 Z M 277.328125 554.667969 L 255.996094 554.667969 L 255.996094 512.003906 L 277.328125 512.003906 Z M 277.328125 554.667969 " style=" stroke:none;fill-rule:nonzero;fill:rgb(0%,0%,0%);fill-opacity:1;" />
</g>
</svg>