<svg id="Capa_1" enable-background="new 0 0 512 512" height="512" viewBox="0 0 512 512" width="512" xmlns="http://www.w3.org/2000/svg"><g><path d="m467.125 408.338c9.288-11.243 14.875-25.65 14.875-41.338 0-35.841-29.159-65-65-65-23.769 0-44.589 12.832-55.924 31.925l-60.12-18.671c-.722-18.796-13.02-34.667-29.956-40.674v-64.58h65c8.284 0 15-6.716 15-15v-20c0-30.643-18.481-57.037-44.875-68.662 9.288-11.243 14.875-25.65 14.875-41.338 0-35.841-29.159-65-65-65s-65 29.159-65 65c0 15.688 5.587 30.095 14.875 41.338-26.394 11.625-44.875 38.019-44.875 68.662v20c0 8.284 6.716 15 15 15h65v64.58c-16.936 6.007-29.234 21.878-29.956 40.674l-60.12 18.671c-11.335-19.093-32.155-31.925-55.924-31.925-35.841 0-65 29.159-65 65 0 15.688 5.587 30.095 14.875 41.338-26.394 11.625-44.875 38.019-44.875 68.662v20c0 8.284 6.716 15 15 15h160c8.284 0 15-6.716 15-15v-20c0-30.643-18.481-57.037-44.875-68.662 9.288-11.243 14.875-25.65 14.875-41.338 0-1.49-.069-2.963-.168-4.427l60.116-18.67c8.214 10.978 21.317 18.097 36.052 18.097s27.838-7.119 36.052-18.097l60.116 18.67c-.099 1.464-.168 2.937-.168 4.427 0 15.688 5.587 30.095 14.875 41.338-26.394 11.625-44.875 38.019-44.875 68.662v20c0 8.284 6.716 15 15 15h160c8.284 0 15-6.716 15-15v-20c0-30.643-18.481-57.037-44.875-68.662zm-211.125-378.338c19.299 0 35 15.701 35 35s-15.701 35-35 35-35-15.701-35-35 15.701-35 35-35zm-65 145c0-24.813 20.187-45 45-45h40c24.813 0 45 20.187 45 45v5h-130zm-96 157c19.299 0 35 15.701 35 35s-15.701 35-35 35-35-15.701-35-35 15.701-35 35-35zm65 145v5h-130v-5c0-24.813 20.187-45 45-45h40c24.813 0 45 20.187 45 45zm96-145c-8.271 0-15-6.729-15-15s6.729-15 15-15 15 6.729 15 15-6.729 15-15 15zm161 0c19.299 0 35 15.701 35 35s-15.701 35-35 35-35-15.701-35-35 15.701-35 35-35zm65 150h-130v-5c0-24.813 20.187-45 45-45h40c24.813 0 45 20.187 45 45z"/></g></svg>