<svg id="Capa_1" enable-background="new 0 0 512 512" height="512" viewBox="0 0 512 512" width="512" xmlns="http://www.w3.org/2000/svg"><g><path d="m479.5 446.809h-29.469v-240.234h21.29c9.649 0 17.5-7.851 17.5-17.5v-118.997c0-9.649-7.851-17.5-17.5-17.5h-21.29v-25.078c0-9.649-7.851-17.5-17.5-17.5h-353.062c-9.649 0-17.5 7.851-17.5 17.5v25.078h-21.29c-9.649 0-17.5 7.851-17.5 17.5v118.997c0 9.649 7.851 17.5 17.5 17.5h21.291v50.651c0 4.142 3.358 7.5 7.5 7.5s7.5-3.358 7.5-7.5v-50.651h358.062v127.775h-27.125c-4.143 0-7.5 3.358-7.5 7.5s3.357 7.5 7.5 7.5h27.125v51.648h-90.057v-51.648h30.016c4.143 0 7.5-3.358 7.5-7.5s-3.357-7.5-7.5-7.5h-30.016v-30.722h11.921c4.068 0 7.893-1.988 10.23-5.317 2.338-3.329 2.908-7.601 1.526-11.429l-15.195-42.075c-2.496-6.912-9.11-11.556-16.46-11.556h-161.994c-7.349 0-13.963 4.643-16.459 11.556l-15.195 42.075c-1.382 3.827-.812 8.099 1.525 11.428 2.338 3.33 6.163 5.318 10.231 5.318h11.921v30.722h-90.057v-44.439c0-4.142-3.358-7.5-7.5-7.5s-7.5 3.358-7.5 7.5v156.897h-29.469c-17.92 0-32.5 14.58-32.5 32.5v10.192c0 6.893 5.607 12.5 12.5 12.5h487c6.893 0 12.5-5.607 12.5-12.5v-10.191c0-17.92-14.579-32.5-32.5-32.5zm-441.321-257.734v-118.997c0-1.378 1.122-2.5 2.5-2.5h331.436c4.143 0 7.5-3.358 7.5-7.5s-3.357-7.5-7.5-7.5h-295.146v-25.078c0-1.378 1.122-2.5 2.5-2.5h353.062c1.379 0 2.5 1.122 2.5 2.5v25.078h-30.23c-4.143 0-7.5 3.358-7.5 7.5s3.357 7.5 7.5 7.5h66.52c1.379 0 2.5 1.122 2.5 2.5v118.997c0 1.378-1.121 2.5-2.5 2.5h-430.642c-1.379 0-2.5-1.121-2.5-2.5zm396.852 226.924v30.81h-90.057v-30.81zm-105.056 30.81h-66.475v-143.181h66.475zm-51.671-198.557 14.583 40.377h-73.773l14.582-40.377zm61.045 1.65 13.986 38.726h-44.5l-14.583-40.377h42.745c1.05.001 1.995.664 2.352 1.651zm-166.697 0c.356-.987 1.301-1.651 2.351-1.651h42.744l-14.582 40.377h-44.499zm75.848 53.726v143.181h-66.474v-143.181zm-81.474 45.723v51.648h-90.057v-51.648zm-90.057 66.648h90.057v30.81h-90.057zm420.031 71.001h-482v-7.691c0-9.649 7.851-17.5 17.5-17.5h447c9.649 0 17.5 7.851 17.5 17.5z"/><path d="m231.681 81.307c-4.142 0-7.5 3.358-7.5 7.5v31.872h-41.427v-31.872c0-4.142-3.358-7.5-7.5-7.5s-7.5 3.358-7.5 7.5v81.541c0 4.142 3.358 7.5 7.5 7.5s7.5-3.358 7.5-7.5v-34.669h41.427v34.669c0 4.142 3.358 7.5 7.5 7.5s7.5-3.358 7.5-7.5v-81.541c0-4.142-3.358-7.5-7.5-7.5z"/><path d="m128.935 123.183c-10.454-3.856-20.155-8.066-22.647-9.161-2.521-1.859-3.744-4.821-3.284-8.025.583-4.062 3.713-7.325 8.374-8.729 12.986-3.912 24.738 5.532 24.926 5.687 3.17 2.638 7.881 2.221 10.538-.94 2.665-3.171 2.255-7.902-.915-10.567-.724-.609-17.981-14.836-38.875-8.542-10.242 3.085-17.482 11.116-18.896 20.959-1.317 9.171 2.655 17.991 10.365 23.018.332.216.679.405 1.041.566.469.21 11.619 5.172 24.182 9.807 8.901 3.283 13.424 8.422 12.41 14.101-1.008 5.648-7.604 11.49-16.895 11.49-8.852 0-17.397-3.598-22.857-9.624-2.781-3.069-7.524-3.304-10.594-.521-3.069 2.781-3.303 7.525-.521 10.594 8.257 9.111 20.957 14.551 33.973 14.551 15.622 0 29.233-10.255 31.661-23.854 1.838-10.296-2.973-23.797-21.986-30.81z"/><path d="m397.694 81.307h-22.704c-4.087 0-7.5 3.413-7.5 7.5v81.541c0 4.142 3.357 7.5 7.5 7.5s7.5-3.358 7.5-7.5v-27.96c5.151-.028 11.731-.059 15.204-.059 17.072 0 30.962-13.687 30.962-30.511s-13.889-30.511-30.962-30.511zm0 46.021c-3.457 0-9.948.031-15.088.059-.028-5.29-.06-12.039-.06-15.569 0-2.989-.019-10.002-.034-15.511h15.182c8.652 0 15.962 7.103 15.962 15.511s-7.309 15.51-15.962 15.51z"/><path d="m302.761 81.307c-26.616 0-48.271 21.654-48.271 48.27 0 26.617 21.654 48.271 48.271 48.271 26.616 0 48.27-21.654 48.27-48.271-.001-26.617-21.654-48.27-48.27-48.27zm0 81.54c-18.346 0-33.271-14.925-33.271-33.271 0-18.345 14.925-33.27 33.271-33.27 18.345 0 33.27 14.925 33.27 33.27-.001 18.346-14.926 33.271-33.27 33.271z"/></g></svg>