<?xml version="1.0" encoding="UTF-8"?>
<svg xmlns="http://www.w3.org/2000/svg" id="outline" viewBox="0 0 512 512" width="512" height="512"><path d="M488,56H296a8.00039,8.00039,0,0,0-8,8V392H258.42188L236.4375,377.34375A8.00221,8.00221,0,0,0,232,376h-8V290.42188l14.65625-21.98438A8.00221,8.00221,0,0,0,240,264V240a8.00039,8.00039,0,0,0-8-8H219.31445l-3.85351-3.85352a41.47322,41.47322,0,0,0-52.33106-5.18066l-10.70019,7.13281-10.73-8.584a37.287,37.287,0,0,0-2.66236-24.21411A24.01937,24.01937,0,0,0,152,176V164.94434l3.37891-1.68946A22.70755,22.70755,0,0,0,168,142.833V128a8.00039,8.00039,0,0,0-8-8H123.416a27.41651,27.41651,0,0,0-24.52149,39.67773L104,169.88867V176l.001.02393a48.767,48.767,0,0,0-42.50293,27.09228L36.94238,252.22754A47.05029,47.05029,0,0,0,32,273.16211v16.26953a39.78368,39.78368,0,0,0,3.2334,15.75684l19.63965,45.82519L17.49023,403.34961a8.00144,8.00144,0,0,0,.85254,10.30762l40,40a8.00181,8.00181,0,0,0,11.31446,0l8-8A8.00235,8.00235,0,0,0,80,440V402.80664l20.56836-25.71094a51.9635,51.9635,0,0,0,6.23193-9.92871L112,424.36328V448a8.00039,8.00039,0,0,0,8,8h56a8.00039,8.00039,0,0,0,8-8V432h9.37622a23.99486,23.99486,0,0,0,45.24756,0H288v16a8.00039,8.00039,0,0,0,8,8h32a8.00039,8.00039,0,0,0,8-8V432H448v16a8.00039,8.00039,0,0,0,8,8h32a8.00039,8.00039,0,0,0,8-8V64A8.00039,8.00039,0,0,0,488,56ZM192,376V296h16v80Zm24-120a8.00039,8.00039,0,0,0,8-8v13.57812L211.71875,280h-23.4375l-8.53809-12.80713L194.667,256Zm-59.5625-9.34375,15.56836-10.37793a25.47068,25.47068,0,0,1,32.14062,3.18262l.54.53906H192a8.0033,8.0033,0,0,0-4.7998,1.59961l-19.52735,14.64551a38.75792,38.75792,0,0,1-42.03418,2.90381l14.05884-18.74537,7.30444,5.84351A7.99979,7.99979,0,0,0,156.4375,246.65625Zm-35.67383-67.29053A7.92314,7.92314,0,0,1,120,176V164.35059a26.05756,26.05756,0,0,0,16,5.53515V176a8.003,8.003,0,0,1-7.63037,7.9812A37.57406,37.57406,0,0,0,120.76367,179.36572ZM123.416,136H152v6.833a6.79559,6.79559,0,0,1-3.77734,6.11133l-7.80078,3.90039.00024.00048a9.89969,9.89969,0,0,1-13.26685-4.42236,8.00053,8.00053,0,0,0-12.8125-2.08008l-2.27246,2.27246A11.35229,11.35229,0,0,1,123.416,136ZM75.80859,210.27148A32.87315,32.87315,0,0,1,105.37305,192a21.22409,21.22409,0,0,1,20.83984,17.12476l-9.21484-7.37183-9.9961,12.49414,20.19532,16.15625-14.39478,19.19312L92.99805,233.75293l-9.9961,12.49414,10.79834,8.63818L92.68555,256H52.94434ZM34.44922,407.13477l4.054-5.67554L64,406.55859v30.12793Zm53.625-40.03418L68.79443,391.2002l-20.09326-4.01856,21.8086-30.53223a7.99951,7.99951,0,0,0,.84375-7.80078L56.57129,314.35742l38.323,21.291a36.13262,36.13262,0,0,1-6.82007,31.45215Zm27.81055-38.09375L63.84863,300.09766A30.831,30.831,0,0,1,48,273.16211c0-.38745.01929-.7749.03418-1.16211H88v8a8,8,0,0,0,4.03125,6.94629l39.875,22.78516A24.05478,24.05478,0,0,1,144,330.57031v79.18384l-16.87891,4.21973-7.15429-78.69849A7.99764,7.99764,0,0,0,115.88477,329.00684ZM168,440H128v-9.75415l22.50684-5.62671L168,436.28125Zm-8-28.28125V330.57031a40.09021,40.09021,0,0,0-20.15527-34.73047L104,275.35742v-8.04394l2.37158-2.37134,3.81885,3.05493a54.68512,54.68512,0,0,0,55.87256,7.519L176,290.42188V422.3855ZM216,432a8,8,0,1,1,8-8A8.00917,8.00917,0,0,1,216,432Zm32-16h-9.37622a23.99486,23.99486,0,0,0-45.24756,0H192V392h37.57812L248,404.28125ZM352,168V152h32v64H304V152h32v16Zm96,0V152h32v64H400V152h32v16Zm32,128H400V232h32v16h16V232h32Zm0,80H400V312h32v16h16V312h32Zm-176,0V312h32v16h16V312h32v64Zm0-144h32v16h16V232h32v64H304Zm0,160H480v24H304ZM480,136H400V72h32V88h16V72h32ZM304,72h32V88h16V72h32v64H304ZM288,416H264v-8h24Zm32,24H304v-8h16Zm144,0v-8h16v8Z"/></svg>
