<?xml version="1.0" encoding="iso-8859-1"?>
<!-- Generator: Adobe Illustrator 19.0.0, SVG Export Plug-In . SVG Version: 6.00 Build 0)  -->
<svg version="1.1" id="Capa_1" xmlns="http://www.w3.org/2000/svg" xmlns:xlink="http://www.w3.org/1999/xlink" x="0px" y="0px"
	 viewBox="0 0 512 512" style="enable-background:new 0 0 512 512;" xml:space="preserve">
<path style="fill:#D8D7DA;" d="M466.294,270.236v131.871c0,16.554-13.417,29.971-29.971,29.971h-73.928v-39.961h48.952
	c8.272,0,14.985-6.713,14.985-14.985v-81.92c0-8.272-6.713-14.985-14.985-14.985h-48.952v-39.961h73.928
	C452.878,240.265,466.294,253.682,466.294,270.236z"/>
<g>
	<rect x="362.396" y="240.265" style="fill:#ACABB1;" width="19.98" height="39.961"/>
	<rect x="362.396" y="392.117" style="fill:#ACABB1;" width="19.98" height="39.961"/>
</g>
<rect x="92.659" y="187.317" style="fill:#FDD844;" width="269.737" height="272.234"/>
<path style="fill:#FDAB08;" d="M362.396,187.317v49.711c-1.648,0.16-3.307,0.24-4.995,0.24c-3.926,0-7.832-0.46-11.639-1.359
	c-10.11,10.809-24.466,17.343-39.811,17.343c-18.332,0-34.586-9.111-44.457-23.048v13.557c0,20.11-16.354,36.464-36.464,36.464
	c-12.098,0-22.838-5.914-29.471-15.015v68.963c0,24.786-20.17,44.956-44.956,44.956s-44.956-20.17-44.956-44.956V207.298H92.659
	v-19.98H362.396z"/>
<path style="fill:#FFFFFF;" d="M387.422,178.676c0.619,2.448,0.949,5.005,0.949,7.643c0,17.103-13.866,30.97-30.97,30.97
	c-7.203,0-13.827-2.468-19.091-6.594c-4.845,13.177-17.503,22.578-32.358,22.578c-19.031,0-34.466-15.435-34.466-34.466v-11.489
	h-29.971v56.445c0,4.556-1.848,8.672-4.825,11.659c-2.987,2.977-7.103,4.825-11.659,4.825c-9.101,0-16.484-7.383-16.484-16.484
	V225.78c0-4.556-1.848-8.672-4.825-11.659c-2.987-2.977-7.103-4.825-11.659-4.825c-9.101,0-16.484,7.383-16.484,16.484v108.394
	c0,6.893-2.797,13.147-7.313,17.663c-4.516,4.516-10.769,7.313-17.663,7.313c-13.797,0-24.976-11.179-24.976-24.976V187.317H88.463
	c-23.157,0-42.558-18.432-42.758-41.599c-0.16-19.191,12.568-35.425,30.041-40.59c4.995-24.916,26.994-43.687,53.378-43.687
	c0.659,0,1.309,0.03,1.958,0.05v-0.01c4.246-10.34,10.42-19.691,18.092-27.593c15.785-16.274,37.893-26.394,62.369-26.394
	c35.176,0,65.466,20.9,79.153,50.95c0.05,0.12,0.11,0.23,0.15,0.35c0.22,0.47,0.42,0.939,0.619,1.409c0.1,0.21,0.18,0.41,0.27,0.619
	c0.21,0.5,0.41,0.999,0.609,1.499c7.383-3.746,15.745-5.874,24.596-5.874c1.778,0,3.537,0.09,5.265,0.25
	c25.415,2.448,45.715,22.358,48.772,47.584c0.13,0.03,0.27,0.06,0.4,0.09c11.729,2.558,21.619,10.01,27.433,20.12
	c3.417,5.964,5.425,12.857,5.535,20.2C404.565,158.525,397.811,170.873,387.422,178.676z"/>
<g>
	<path style="fill:#D8D7DA;" d="M369.889,459.551H85.167c-12.414,0-22.478,10.063-22.478,22.478l0,0
		c0,12.414,10.064,22.478,22.478,22.478h284.722c12.414,0,22.478-10.064,22.478-22.478l0,0
		C392.367,469.614,382.303,459.551,369.889,459.551z"/>
	<path style="fill:#D8D7DA;" d="M183.571,115.887L183.571,115.887c0-29.411-23.327-53.378-52.489-54.407
		c4.246-10.34,10.42-19.691,18.092-27.593c25.461,6.217,46.429,24.019,56.983,47.479
		C213.448,97.572,201.342,115.887,183.571,115.887z"/>
	<path style="fill:#D8D7DA;" d="M398.81,124.488c-6.345,25.227-24.079,45.984-47.393,56.461
		c-16.191,7.276-34.477-4.852-34.477-22.604l0,0c29.911,0,54.197-24.126,54.437-53.977
		C383.106,106.926,392.996,114.378,398.81,124.488z"/>
	<path style="fill:#D8D7DA;" d="M328.429,94.408c0,10.918-1.511,21.688-4.454,32.037c-4.805,16.9-24.506,24.42-39.284,14.917l0,0
		c8.711-13.537,13.767-29.661,13.767-46.954c0-11.908-2.398-23.257-6.723-33.587c0.21,0.5,0.41,0.999,0.609,1.499
		c7.383-3.746,15.745-5.874,24.596-5.874c1.778,0,3.537,0.09,5.265,0.25C326.341,68.793,328.429,81.43,328.429,94.408z"/>
</g>
<rect x="175.578" y="149.854" width="29.971" height="14.985"/>
<path d="M333.782,108.786l14.876-1.803c-1.938-15.996-15.574-28.06-31.718-28.06v14.985
	C325.514,93.908,332.754,100.304,333.782,108.786z"/>
<path d="M257.527,76.16l13.925-5.536c-9.815-24.695-33.331-40.653-59.909-40.653v14.985
	C231.943,44.956,249.993,57.204,257.527,76.16z"/>
<path d="M129.124,98.903V83.918c-15.181,0-28.361,10.777-31.339,25.626l14.693,2.946C114.055,104.618,121.057,98.903,129.124,98.903
	z"/>
<path d="M155.598,164.839v-14.985h-67.13c-2.753,0-5.279-2.121-5.299-4.45c-0.023-2.786,2.306-4.087,3.205-4.353l-4.252-14.369
	c-6.772,2.003-14.022,8.756-13.937,18.849c0.088,10.466,9.377,19.308,20.283,19.308H155.598z"/>
<path d="M436.324,232.773h-66.435v-10.084c15.095-5.198,25.975-19.533,25.975-36.37c0-1.564-0.095-3.127-0.284-4.676
	c10.474-9.53,16.483-23.072,16.262-37.076c-0.334-21.164-14.451-39.854-34.261-46.275c-5.873-28.463-31.09-49.339-60.641-49.339
	c-7.174,0-14.13,1.199-20.765,3.574c-7.096-14.345-17.705-26.629-31.009-35.826C249.364,5.774,230.821,0,211.543,0
	c-36.8,0-69.769,21.04-85.351,54.016C99.484,55.283,76.475,73.749,69.41,99.399c-18.739,7.458-31.367,25.934-31.196,46.385
	c0.218,25.942,20.991,47.229,46.952,48.907v257.368c-16.526,0-29.971,13.445-29.971,29.971S68.641,512,85.167,512h284.722
	c16.526,0,29.971-13.445,29.971-29.971s-13.445-29.971-29.971-29.971v-12.488h66.435c20.658,0,37.463-16.806,37.463-37.463V270.236
	C473.787,249.578,456.982,232.773,436.324,232.773z M53.199,145.657c-0.128-15.298,10.017-29.01,24.672-33.345l4.333-1.281
	l0.888-4.431c4.376-21.827,23.735-37.667,46.032-37.667c0.501,0,0.997,0.02,1.494,0.038l1.161,0.042
	c24.661,1.382,44.301,21.875,44.301,46.874h14.985c0-29.611-20.893-54.423-48.707-60.502c13.957-24.824,40.149-40.4,69.186-40.4
	c31.571,0,59.631,18.274,72.451,46.85c0.519,1.154,1.015,2.316,1.477,3.488l0.093,0.233c3.585,9.173,5.402,18.858,5.402,28.852
	c0,15.279-4.347,30.115-12.571,42.901l12.604,8.105c9.782-15.21,14.952-32.848,14.952-51.007c0-9.59-1.415-18.942-4.203-27.934
	c4.864-1.672,9.948-2.536,15.192-2.536c23.715,0,43.746,17.731,46.595,41.243l0.237,1.95c-1.668,24.387-22.027,43.722-46.831,43.722
	v14.985c30.501,0,55.905-22.166,60.994-51.232c11.148,5.686,18.72,17.278,18.923,30.197c0.17,10.781-5.04,21.206-13.937,27.885
	l-3.992,2.997l1.228,4.838c0.479,1.887,0.721,3.836,0.721,5.796c0,12.945-10.532,23.477-23.477,23.477
	c-5.297,0-10.299-1.727-14.465-4.996l-8.104-6.357l-3.554,9.669c-3.884,10.568-14.063,17.668-25.327,17.668
	c-14.873,0-26.974-12.1-26.974-26.974v-18.981h-44.956v63.938c0,4.958-4.034,8.991-8.991,8.991c-4.957,0-8.991-4.033-8.991-8.991
	V225.78c0-13.22-10.757-23.977-23.977-23.977s-23.977,10.756-23.977,23.977v108.394c0,9.64-7.843,17.483-17.483,17.483
	s-17.483-7.843-17.483-17.483V179.824H88.467C69.179,179.824,53.358,164.496,53.199,145.657z M369.889,467.044
	c8.263,0,14.985,6.722,14.985,14.985s-6.722,14.985-14.985,14.985H85.167c-8.263,0-14.985-6.722-14.985-14.985
	s6.722-14.985,14.985-14.985l0,0l0,0h207.298v-14.985H100.152V194.81h17.982v139.364c0,17.904,14.566,32.468,32.468,32.468
	s32.468-14.565,32.468-32.468V225.78c0-4.958,4.034-8.991,8.991-8.991c4.957,0,8.991,4.033,8.991,8.991v17.982
	c0,13.22,10.756,23.977,23.977,23.977s23.977-10.756,23.977-23.977V194.81h14.985v3.996c0,23.136,18.823,41.959,41.959,41.959
	c14.489,0,27.824-7.556,35.421-19.468c4.238,1.953,8.798,3.097,13.531,3.397l0,0l0,0v242.35l0,0l0,0H369.889z M369.889,287.719
	h41.46c4.132,0,7.493,3.361,7.493,7.493v81.92c0,4.132-3.361,7.493-7.493,7.493h-41.46V287.719z M458.802,402.107
	c0,12.394-10.083,22.478-22.478,22.478h-66.435V399.61h41.46c12.395,0,22.478-10.084,22.478-22.478v-81.92
	c0-12.394-10.083-22.478-22.478-22.478h-41.46v-24.976h66.435c12.395,0,22.478,10.084,22.478,22.478V402.107z"/>
<rect x="307.45" y="452.059" width="16.983" height="14.985"/>
<g>
	<rect x="314.942" y="273.233" style="fill:#FFFFFF;" width="14.985" height="14.985"/>
	<rect x="326.931" y="308.199" style="fill:#FFFFFF;" width="14.985" height="14.985"/>
	<rect x="293.963" y="343.165" style="fill:#FFFFFF;" width="14.985" height="14.985"/>
	<rect x="317.939" y="376.133" style="fill:#FFFFFF;" width="14.985" height="14.985"/>
	<rect x="250.006" y="365.143" style="fill:#FFFFFF;" width="14.985" height="14.985"/>
	<rect x="282.974" y="402.107" style="fill:#FFFFFF;" width="14.985" height="14.985"/>
	<rect x="325.932" y="413.097" style="fill:#FFFFFF;" width="14.985" height="14.985"/>
	<rect x="239.016" y="424.086" style="fill:#FFFFFF;" width="14.985" height="14.985"/>
	<rect x="206.049" y="400.109" style="fill:#FFFFFF;" width="14.985" height="14.985"/>
	<rect x="171.083" y="422.088" style="fill:#FFFFFF;" width="14.985" height="14.985"/>
	<rect x="268.987" y="295.212" style="fill:#FFFFFF;" width="14.985" height="14.985"/>
	<rect x="201.054" y="284.222" style="fill:#FFFFFF;" width="14.985" height="14.985"/>
	<rect x="234.021" y="317.19" style="fill:#FFFFFF;" width="14.985" height="14.985"/>
	<rect x="201.054" y="352.156" style="fill:#FFFFFF;" width="14.985" height="14.985"/>
	<rect x="157.096" y="387.122" style="fill:#FFFFFF;" width="14.985" height="14.985"/>
	<rect x="124.129" y="411.099" style="fill:#FFFFFF;" width="14.985" height="14.985"/>
	<rect x="114.138" y="376.133" style="fill:#FFFFFF;" width="14.985" height="14.985"/>
	<rect x="270.985" y="251.255" style="fill:#FFFFFF;" width="14.985" height="14.985"/>
</g>
<g>
</g>
<g>
</g>
<g>
</g>
<g>
</g>
<g>
</g>
<g>
</g>
<g>
</g>
<g>
</g>
<g>
</g>
<g>
</g>
<g>
</g>
<g>
</g>
<g>
</g>
<g>
</g>
<g>
</g>
</svg>
